HIERARCHY
ROOT Hips
{
  OFFSET 5.84602e-005 68.8428 3.50346
  CHANNELS 6 Xposition Yposition Zposition Zrotation Xrotation Yrotation
  JOINT Spine
  {
    OFFSET 0 8.597 -4.6522
    CHANNELS 3 Zrotation Xrotation Yrotation
    JOINT Spine1
    {
      OFFSET 0 7.8454 0.4098
      CHANNELS 3 Zrotation Xrotation Yrotation
      JOINT Spine2
      {
        OFFSET 0 9.7078 -2.1609
        CHANNELS 3 Zrotation Xrotation Yrotation
        JOINT Neck
        {
          OFFSET 0 21.8761 -0.4549
          CHANNELS 3 Zrotation Xrotation Yrotation
          JOINT Head
          {
            OFFSET 0 12.3537 3.3602
            CHANNELS 3 Zrotation Xrotation Yrotation
            End Site
            {
              OFFSET 0.0001 18.9506 0.5657
            }
          }
        }
        JOINT LeftShoulder
        {
          OFFSET 2.2086 21.1115 7.2329
          CHANNELS 3 Zrotation Xrotation Yrotation
          JOINT LeftArm
          {
            OFFSET 13.1193 3.0282 -4.8998
            CHANNELS 3 Zrotation Xrotation Yrotation
            JOINT LeftForeArm
            {
              OFFSET 27.4081 -0.0973053 -0.2375
              CHANNELS 3 Zrotation Xrotation Yrotation
              JOINT LeftHand
              {
                OFFSET 22.8641 0.0662994 -0.1369
                CHANNELS 3 Zrotation Xrotation Yrotation
                JOINT LeftHandIndex1
                {
                  OFFSET 8.8614 0.775009 2.4612
                  CHANNELS 3 Zrotation Xrotation Yrotation
                  JOINT LeftHandIndex2
                  {
                    OFFSET 3.3146 -0.808304 0.5841
                    CHANNELS 3 Zrotation Xrotation Yrotation
                    JOINT LeftHandIndex3
                    {
                      OFFSET 2.2628 -0.552002 0.3989
                      CHANNELS 3 Zrotation Xrotation Yrotation
                      End Site
                      {
                        OFFSET 1.6102 -0.4807 0.2612
                      }
                    }
                  }
                }
                JOINT LeftHandMiddle1
                {
                  OFFSET 8.9937 0.895004 0.2143
                  CHANNELS 3 Zrotation Xrotation Yrotation
                  JOINT LeftHandMiddle2
                  {
                    OFFSET 4.0984 0.0113983 -0.0242
                    CHANNELS 3 Zrotation Xrotation Yrotation
                    JOINT LeftHandMiddle3
                    {
                      OFFSET 2.2716 0.00689697 -0.0138001
                      CHANNELS 3 Zrotation Xrotation Yrotation
                      End Site
                      {
                        OFFSET 2.0404 -0.1441 0.0027
                      }
                    }
                  }
                }
                JOINT LeftHandRing1
                {
                  OFFSET 8.5234 0.597198 -2.0164
                  CHANNELS 3 Zrotation Xrotation Yrotation
                  JOINT LeftHandRing2
                  {
                    OFFSET 3.7188 -0.188293 -0.2328
                    CHANNELS 3 Zrotation Xrotation Yrotation
                    JOINT LeftHandRing3
                    {
                      OFFSET 2.1191 -0.106598 -0.1332
                      CHANNELS 3 Zrotation Xrotation Yrotation
                      End Site
                      {
                        OFFSET 1.8737 -0.2304 -0.0886
                      }
                    }
                  }
                }
                JOINT LeftHandPinky1
                {
                  OFFSET 7.9094 -0.601089 -3.4825
                  CHANNELS 3 Zrotation Xrotation Yrotation
                  JOINT LeftHandPinky2
                  {
                    OFFSET 2.2874 -0.477005 -0.6314
                    CHANNELS 3 Zrotation Xrotation Yrotation
                    JOINT LeftHandPinky3
                    {
                      OFFSET 1.6774 -0.349396 -0.4633
                      CHANNELS 3 Zrotation Xrotation Yrotation
                      End Site
                      {
                        OFFSET 1.4888 -0.4091 -0.3416
                      }
                    }
                  }
                }
                JOINT LeftHandThumb1
                {
                  OFFSET 1.833 -1.3875 1.3896
                  CHANNELS 3 Zrotation Xrotation Yrotation
                  JOINT LeftHandThumb2
                  {
                    OFFSET 3.4129 -1.121 2.5732
                    CHANNELS 3 Zrotation Xrotation Yrotation
                    JOINT LeftHandThumb3
                    {
                      OFFSET 2.2474 -0.804199 1.6192
                      CHANNELS 3 Zrotation Xrotation Yrotation
                      End Site
                      {
                        OFFSET 1.6527 -0.5689 1.1317
                      }
                    }
                  }
                }
              }
            }
          }
        }
        JOINT RightShoulder
        {
          OFFSET -2.2086 21.1115 7.2329
          CHANNELS 3 Zrotation Xrotation Yrotation
          JOINT RightArm
          {
            OFFSET -13.1216 3.0287 -4.9007
            CHANNELS 3 Zrotation Xrotation Yrotation
            JOINT RightForeArm
            {
              OFFSET -27.4081 -0.0973053 -0.2375
              CHANNELS 3 Zrotation Xrotation Yrotation
              JOINT RightHand
              {
                OFFSET -22.8641 0.0664063 -0.1369
                CHANNELS 3 Zrotation Xrotation Yrotation
                JOINT RightHandIndex1
                {
                  OFFSET -8.8614 0.774994 2.4612
                  CHANNELS 3 Zrotation Xrotation Yrotation
                  JOINT RightHandIndex2
                  {
                    OFFSET -3.3146 -0.808304 0.5841
                    CHANNELS 3 Zrotation Xrotation Yrotation
                    JOINT RightHandIndex3
                    {
                      OFFSET -2.2628 -0.552002 0.3989
                      CHANNELS 3 Zrotation Xrotation Yrotation
                      End Site
                      {
                        OFFSET -1.6102 -0.4807 0.2612
                      }
                    }
                  }
                }
                JOINT RightHandMiddle1
                {
                  OFFSET -8.9937 0.894989 0.2143
                  CHANNELS 3 Zrotation Xrotation Yrotation
                  JOINT RightHandMiddle2
                  {
                    OFFSET -4.0984 0.0113983 -0.0242
                    CHANNELS 3 Zrotation Xrotation Yrotation
                    JOINT RightHandMiddle3
                    {
                      OFFSET -2.2716 0.00691223 -0.0138001
                      CHANNELS 3 Zrotation Xrotation Yrotation
                      End Site
                      {
                        OFFSET -2.0404 -0.1441 0.0027
                      }
                    }
                  }
                }
                JOINT RightHandRing1
                {
                  OFFSET -8.5234 0.597198 -2.0164
                  CHANNELS 3 Zrotation Xrotation Yrotation
                  JOINT RightHandRing2
                  {
                    OFFSET -3.7188 -0.188309 -0.2328
                    CHANNELS 3 Zrotation Xrotation Yrotation
                    JOINT RightHandRing3
                    {
                      OFFSET -2.1191 -0.106598 -0.1332
                      CHANNELS 3 Zrotation Xrotation Yrotation
                      End Site
                      {
                        OFFSET -1.8737 -0.2304 -0.0886
                      }
                    }
                  }
                }
                JOINT RightHandPinky1
                {
                  OFFSET -7.9094 -0.601105 -3.4825
                  CHANNELS 3 Zrotation Xrotation Yrotation
                  JOINT RightHandPinky2
                  {
                    OFFSET -2.2874 -0.477005 -0.6314
                    CHANNELS 3 Zrotation Xrotation Yrotation
                    JOINT RightHandPinky3
                    {
                      OFFSET -1.6774 -0.349396 -0.4633
                      CHANNELS 3 Zrotation Xrotation Yrotation
                      End Site
                      {
                        OFFSET -1.4888 -0.4091 -0.3416
                      }
                    }
                  }
                }
                JOINT RightHandThumb1
                {
                  OFFSET -1.833 -1.38751 1.3896
                  CHANNELS 3 Zrotation Xrotation Yrotation
                  JOINT RightHandThumb2
                  {
                    OFFSET -3.41299 -1.12099 2.5732
                    CHANNELS 3 Zrotation Xrotation Yrotation
                    JOINT RightHandThumb3
                    {
                      OFFSET -2.24741 -0.804108 1.6192
                      CHANNELS 3 Zrotation Xrotation Yrotation
                      End Site
                      {
                        OFFSET -1.6527 -0.5689 1.1317
                      }
                    }
                  }
                }
              }
            }
          }
        }
      }
    }
  }
  JOINT RightUpLeg
  {
    OFFSET -9.1966 3.8861 -0.7581
    CHANNELS 3 Zrotation Xrotation Yrotation
    JOINT RightLeg
    {
      OFFSET -0.7359 -41.0265 0
      CHANNELS 3 Zrotation Xrotation Yrotation
      JOINT RightFoot
      {
        OFFSET 0 -40.2855 0
        CHANNELS 3 Zrotation Xrotation Yrotation
        JOINT RightToeBase
        {
          OFFSET 0 -5.6122 11.7359
          CHANNELS 3 Zrotation Xrotation Yrotation
          End Site
          {
            OFFSET 0 0 7.8731
          }
        }
      }
    }
  }
  JOINT LeftUpLeg
  {
    OFFSET 9.1965 3.8864 -0.7581
    CHANNELS 3 Zrotation Xrotation Yrotation
    JOINT LeftLeg
    {
      OFFSET 0.7359 -41.0268 0
      CHANNELS 3 Zrotation Xrotation Yrotation
      JOINT LeftFoot
      {
        OFFSET 0 -40.2855 0
        CHANNELS 3 Zrotation Xrotation Yrotation
        JOINT LeftToeBase
        {
          OFFSET 0 -5.6122 11.7359
          CHANNELS 3 Zrotation Xrotation Yrotation
          End Site
          {
            OFFSET 0 0 7.8731
          }
        }
      }
    }
  }
}
MOTION
Frames:	4
Frame Time:	0.0333333
5.84602e-005 68.8428 3.50346 0 0 -0 0 0 -0 0 0 -0 0 0 -0 0 0 -0 0 0 -0 0 0 -0 0 0 -0 0 0 -0 0 0 -0 0 0 -0 0 0 -0 0 0 -0 0 0 -0 -0.0146107 -8.87603e-005 -2.63497e-007 2.99804e-018 -2.42657e-020 -1.42182e-022 0 0 -0 -0.0187562 -0.001176 5.858e-005 5.06224e-018 3.88251e-019 1.21329e-020 0 0 -0 -0.012269 -0.00324817 0.000675346 -1.74678e-018 3.88251e-019 -0 0 0 -0 0 0 -0 0 0 -0 0 0 -0 0 0 -0 0 0 -0 0 0 -0 0 0 -0 0 0 -0 0 0 -0 0 0 -0 0.0149955 -9.10982e-005 2.64101e-007 -9.69331e-018 1.21329e-020 -4.7394e-023 0 0 -0 0.0189956 -0.00119102 -5.96516e-005 -5.41541e-019 0 2.42657e-020 0 0 -0 0.0122698 -0.00324857 -0.000673756 -2.00796e-019 0 -1.94126e-019 0 0 -0 0 0 -0 0 0 -0 3.39842 1.33031 -0.0637918 -5.65207e-008 0.834868 -0.000436188 -3.39935 -2.16518 -0.0642563 -8.89002e-024 -1.18485e-023 -1.48106e-024 -3.39844 1.35642 0.0640283 -3.18788e-007 0.782166 -0.000588827 3.39931 -2.13858 0.0634662 1.1399e-023 0 -0 
-24.1223 15.162 2.95273 0 27.9976 -0 2.26253 16.1392 -2.10971 5.52183 32.1616 -5.24551 5.52183 32.1616 -5.24551 8.601 16.0881 -4.40388 -0.00145841 -21.6289 -18.0023 -35.3583 -49.5819 51.2145 -42.8669 14.74 -2.40523 -24.6499 10.6578 0.148105 11.7038 8.13459 0.498823 1.19271e-015 -1.67725e-016 1.98785e-016 3.97569e-016 3.01283e-015 5.96354e-016 7.95139e-016 -1.61513e-016 3.97569e-016 1.19271e-015 -1.67725e-016 1.98785e-016 -0.0145985 -8.09376e-005 2.17928e-007 1.76609e-007 -5.58877e-007 7.74336e-008 1.19271e-015 -1.67725e-016 1.98785e-016 -0.0187987 -0.00117231 5.7761e-005 -6.07774e-033 -1.75179e-015 -1.98785e-016 1.19271e-015 -1.67725e-016 1.98785e-016 -0.0122809 -0.00324905 0.000676404 3.97569e-016 -2.28602e-015 -5.96354e-016 1.19271e-015 -1.67725e-016 1.98785e-016 3.97569e-016 3.01283e-015 5.96354e-016 7.95139e-016 -1.61513e-016 3.97569e-016 20.2222 -45.2534 -47.4379 42.9184 14.2556 6.32082 36.1417 16.5578 -0.125984 -28.2622 1.12849 9.57536 -4.19913e-006 4.80189e-007 -2.32349e-006 -4.19913e-006 4.80189e-007 -2.32349e-006 -1.85947e-006 2.33966e-006 -1.28807e-006 -4.19913e-006 4.80189e-007 -2.32349e-006 0.0150058 -8.77358e-005 -1.56262e-006 -1.85961e-006 2.33949e-006 -1.28837e-006 -4.19913e-006 4.80189e-007 -2.32349e-006 0.0189784 -0.00118574 -5.94172e-005 -1.85966e-006 2.33946e-006 -1.28843e-006 -4.19913e-006 4.80189e-007 -2.32349e-006 0.0122469 -0.00324313 -0.000677463 7.43152e-007 4.85756e-006 -3.79462e-006 -4.19913e-006 4.80189e-007 -2.32349e-006 -4.19913e-006 4.80189e-007 -2.32349e-006 -1.85947e-006 2.33966e-006 -1.28807e-006 -8.09742 -73.7469 -16.4273 -174.32 37.7363 171.276 -4.25786 55.5315 -8.92048 1.59028e-015 -3.18055e-015 1.59028e-015 8.00796 -73.6934 16.2716 174.41 37.7661 -171.347 4.44481 54.9284 8.7417 -4.19873e-007 2.93263e-008 -7.69465e-007 
-24.1223 15.162 2.95273 0 27.9976 -0 2.26253 16.1392 -2.10971 5.52183 32.1616 -5.24552 5.52183 32.1616 -5.24551 7.06512 16.1291 -3.97876 -0.00156485 -22.764 -18.0023 -35.3583 -49.5819 51.2145 -42.867 14.7399 -2.40523 -24.6498 10.6578 0.148107 11.7038 8.13462 0.498822 -1.75235e-007 5.58873e-007 -7.75058e-008 -5.69842e-032 -4.10615e-015 -7.95139e-016 2.27399e-006 -2.66167e-006 1.22481e-006 -1.75235e-007 5.58873e-007 -7.75058e-008 -0.0145983 -8.14976e-005 2.97556e-007 2.09859e-006 -2.10294e-006 1.14704e-006 -1.75235e-007 5.58873e-007 -7.75058e-008 -0.0187924 -0.00117442 6.12911e-005 2.09856e-006 -2.103e-006 1.14694e-006 -1.75235e-007 5.58873e-007 -7.75058e-008 -0.0122243 -0.00323524 0.000664398 2.09864e-006 -2.10297e-006 1.14703e-006 -1.75235e-007 5.58873e-007 -7.75058e-008 -5.69842e-032 -4.10615e-015 -7.95139e-016 2.27399e-006 -2.66167e-006 1.22481e-006 20.2222 -45.2534 -47.4379 42.9184 14.2556 6.32082 36.1417 16.5578 -0.125972 -28.2623 1.12849 9.57537 2.48481e-016 7.42958e-015 -0 1.98785e-016 7.57867e-015 -0 1.98785e-016 1.10574e-014 -0 2.48481e-016 7.42958e-015 -0 0.0150119 -9.05555e-005 2.04971e-006 3.47873e-016 1.36664e-016 -1.59028e-015 2.48481e-016 7.42958e-015 -0 0.0190206 -0.00119501 -5.26165e-005 9.93923e-017 -3.28616e-015 1.59028e-015 2.48481e-016 7.42958e-015 -0 0.0122577 -0.00324223 -0.00067178 -6.95746e-016 -5.54112e-015 -1.59028e-015 2.48481e-016 7.42958e-015 -0 1.98785e-016 7.57867e-015 -0 1.98785e-016 1.10574e-014 -0 -8.09742 -73.7468 -16.4273 -174.32 37.7363 171.276 -4.25786 55.5315 -8.92048 -1.61975e-008 -7.09311e-008 4.78445e-007 8.00788 -73.6934 16.2715 174.41 37.7661 -171.347 4.44482 54.9284 8.74169 -4.19873e-007 2.93263e-008 -7.69465e-007 
-24.1223 15.162 2.95273 0 27.9976 -0 2.26253 16.1392 -2.10972 5.52183 32.1616 -5.24551 5.52183 32.1616 -5.24552 5.52485 16.1591 -3.55149 -0.00167132 -23.9007 -18.0023 -35.3583 -49.5819 51.2145 -42.8669 14.7399 -2.40523 -24.6499 10.6578 0.148113 11.7038 8.13459 0.498831 1.26512e-032 -3.64646e-015 1.98785e-016 -2.04747e-032 5.90142e-015 1.98785e-016 -0 -3.65267e-015 -0 1.26512e-032 -3.64646e-015 1.98785e-016 -0.0145939 -8.11338e-005 -2.75476e-006 -1.81686e-032 -5.23673e-015 -1.98785e-016 1.26512e-032 -3.64646e-015 1.98785e-016 -0.0187945 -0.00117652 6.0055e-005 -0 -1.34801e-015 -0 1.26512e-032 -3.64646e-015 1.98785e-016 -0.0122222 -0.00323734 0.000665543 7.95139e-016 -1.56667e-014 -3.97569e-016 1.26512e-032 -3.64646e-015 1.98785e-016 -2.04747e-032 5.90142e-015 1.98785e-016 -0 -3.65267e-015 -0 20.2222 -45.2534 -47.4379 42.9184 14.2556 6.32081 36.1417 16.5578 -0.125986 -28.2622 1.1285 9.57537 1.19271e-015 -4.17448e-015 -0 -2.33966e-006 -1.85947e-006 -1.03543e-006 6.95746e-016 -7.24322e-015 1.43125e-014 1.19271e-015 -4.17448e-015 -0 0.0149857 -9.18464e-005 -9.18776e-007 1.73937e-015 8.57259e-016 -3.18055e-015 1.19271e-015 -4.17448e-015 -0 0.0190033 -0.00119306 -5.11914e-005 -1.19271e-015 -1.19892e-015 -0 1.19271e-015 -4.17448e-015 -0 0.0122488 -0.00324547 -0.000676175 1.73937e-015 1.0312e-015 1.27222e-014 1.19271e-015 -4.17448e-015 -0 -2.33966e-006 -1.85947e-006 -1.03543e-006 6.95746e-016 -7.24322e-015 1.43125e-014 -8.09735 -73.7468 -16.4272 -174.32 37.7364 171.276 -4.25788 55.5316 -8.92047 2.06008e-007 1.88263e-008 -5.25088e-008 8.008 -73.6934 16.2716 174.41 37.766 -171.347 4.4448 54.9283 8.74171 -4.03123e-007 4.58197e-008 9.83589e-007 
